<svg width="416" height="462" viewBox="0 0 416 462" fill="none" xmlns="http://www.w3.org/2000/svg">
<g opacity="0.1">
<path d="M1.10804 -39.0158L-55.7924 64.8286C-59.4666 71.5335 -57.0471 79.9164 -50.3506 83.6857L38.7459 133.842C45.5345 137.664 54.1654 135.313 58.0261 128.591L166.931 -60.9933H38.3973C22.8391 -60.9933 8.52858 -52.5596 1.10804 -39.0158Z" fill="#A0A0B2" fill-opacity="0.7"/>
<path d="M166.931 -61L58.0299 128.587C54.1622 135.308 45.5372 137.664 38.751 133.845L15.4959 120.758C21.1651 121.662 27.064 119.081 30.0665 113.847L130.524 -61H166.931Z" fill="#A0A0B2" fill-opacity="0.7"/>
<path d="M286.087 39.5486L246.842 -37.8341C239.641 -52.0315 224.971 -60.993 208.93 -60.993H95.4585L182.581 85.3987C182.295 85.5257 182.009 85.6527 181.723 85.7798C176.243 88.2234 176.466 96.0092 182.077 98.1434L257.308 126.756C260.794 128.082 264.705 126.358 266.044 122.906L295.045 48.1105C297.189 42.5777 291.558 37.2389 286.087 39.5486Z" fill="#A0A0B2" fill-opacity="0.7"/>
<path d="M295.046 48.1046L266.037 122.899C264.704 126.361 260.787 128.087 257.304 126.754L234.541 118.093L261.677 48.1046C263.219 44.1355 260.756 40.2703 257.22 39.2563C253.854 38.2897 250.98 36.106 249.407 33.0041L213.473 -37.8365C206.277 -52.0293 191.611 -61 175.563 -61H208.932C224.968 -61 239.634 -52.0293 246.842 -37.8365L286.085 39.552C291.563 37.2435 297.184 42.573 295.046 48.1046Z" fill="#A0A0B2" fill-opacity="0.7"/>
<path d="M210.276 337.898C209.219 333.602 203.622 331.761 200.206 335.144L141.407 393.378C139.061 395.701 139.061 399.467 141.407 401.79L200.433 460.248C203.825 463.608 209.365 461.814 210.48 457.591H297.282C313.262 457.591 327.887 448.698 335.118 434.583L384.647 337.897L210.276 337.898Z" fill="#A0A0B2" fill-opacity="0.7"/>
<path d="M283.551 337.899L311.696 380.078C318.059 389.613 318.764 401.799 313.541 411.991L301.965 434.584C294.746 448.694 280.115 457.593 264.139 457.593H297.281C313.257 457.593 327.888 448.694 335.119 434.584L384.645 337.9L283.551 337.899Z" fill="#A0A0B2" fill-opacity="0.7"/>
<path d="M91.8178 446.474V343.558C91.8178 335.823 85.4863 329.552 77.6751 329.552H-155.285L-95.3327 438.56C-87.9017 452.072 -73.6098 460.48 -58.0749 460.48H77.6751C85.4851 460.481 91.8178 454.211 91.8178 446.474Z" fill="#A0A0B2" fill-opacity="0.7"/>
<path d="M-56.4859 329.56L-108.222 415.134L-155.285 329.56H-56.4859Z" fill="#A0A0B2" fill-opacity="0.7"/>
<path d="M91.8123 343.56V446.479C91.8123 454.212 85.4828 460.48 77.6751 460.48L40.5694 460.481C48.377 460.481 54.7073 454.212 54.7073 446.479V343.56C54.7073 335.827 48.377 329.557 40.5694 329.557H77.6744C85.482 329.556 91.8123 335.827 91.8123 343.56Z" fill="#A0A0B2" fill-opacity="0.7"/>
<path d="M-21.9902 238.613L-32.4517 160.641C-32.9683 156.788 -36.541 154.081 -40.4297 154.593L-119.461 164.993C-125.413 165.776 -127.63 172.946 -123.554 176.935L-173.431 248.136C-182.577 261.19 -183.505 278.236 -175.831 292.188L-121.554 390.879L-33.4242 245.08C-33.3927 245.104 -33.3624 245.128 -33.3309 245.151C-28.3007 248.932 -21.1589 244.814 -21.9902 238.613Z" fill="#A0A0B2" fill-opacity="0.7"/>
<path d="M-33.3341 245.152C-33.3586 245.127 -33.3936 245.104 -33.4181 245.08L-121.552 390.875L-139.677 357.921L-65.9546 235.94C-64.8667 234.14 -62.7411 233.363 -60.6621 233.763C-60.6516 233.765 -60.6411 233.766 -60.6306 233.769C-56.2079 234.549 -51.6709 230.9 -52.3507 225.891L-61.5401 157.366L-40.4352 154.595C-36.543 154.083 -32.9633 156.796 -32.4468 160.638L-21.9841 238.621C-21.1539 244.818 -28.3016 248.934 -33.3341 245.152Z" fill="#A0A0B2" fill-opacity="0.7"/>
<path d="M408.491 242.778L340.264 144.868C336.079 138.861 327.938 137.045 321.556 140.692L232.643 191.508C225.586 195.54 223.421 204.63 227.914 211.362L353.256 399.181L411.41 285.657C418.448 271.916 417.329 255.461 408.491 242.778Z" fill="#A0A0B2" fill-opacity="0.7"/>
<path d="M411.408 285.66L353.246 399.178L333.738 369.936L376.91 285.659C383.949 271.918 382.832 255.465 373.992 242.782L308.178 148.346L321.559 140.697C327.937 137.044 336.082 138.864 340.262 144.873L408.491 242.784C417.33 255.466 418.447 271.92 411.408 285.66Z" fill="#A0A0B2" fill-opacity="0.7"/>
</g>
</svg>
